<?xml version="1.0" encoding="utf-8"?>
<!-- Generator: Adobe Illustrator 19.0.0, SVG Export Plug-In . SVG Version: 6.00 Build 0)  -->
<svg version="1.1" id="Layer_1" xmlns="http://www.w3.org/2000/svg" xmlns:xlink="http://www.w3.org/1999/xlink" x="0px" y="0px"
	 viewBox="-463 261 12.4 12.9" style="enable-background:new -463 261 12.4 12.9;" xml:space="preserve">
<style type="text/css">
	.st0{fill:#FFFFFF;}
</style>
<g>
	<path class="st0" d="M-451.1,261.8c-0.1-0.1-0.3-0.1-0.3,0l-3.2,4l-2-1.6l0.4-0.5h-0.6l-0.2,0.3c-0.3-0.1-0.6,0-0.8,0.2
		c-0.1,0.1-0.2,0.3-0.1,0.5c0,0.1,0,0.2,0.1,0.2l-0.6,0.8h-1.9c-0.1,0-0.2,0.1-0.2,0.2s0.1,0.2,0.2,0.2h2.8c0.1,0,0.2-0.1,0.2-0.2
		s-0.1-0.2-0.2-0.2h-0.2l0.3-0.4l2.1,1.7l-0.8,1c-0.3,0.4-1,0.3-1.6-0.2c-0.3-0.2-0.5-0.5-0.6-0.8c0-0.1,0-0.2,0-0.3h-0.8l-0.6,0.8
		l-1,1.3c-0.1,0.2-0.2,0.4-0.2,0.6c0,0.2,0.1,0.4,0.3,0.5c0,0,0,0,0,0l3.6,2.8c-3.6,0-4.7,0.1-4.7,0.3c0,0.2,1.1,0.3,4.9,0.3
		c2.2,0,3.5-0.1,4.2-0.1h0.5c0.4,0,0.8-0.3,0.8-0.8v-0.4c0-0.4-0.3-0.8-0.7-0.9l-1.8-0.7l-1.7-2.4l0.7-0.9c0,0,0.1,0,0.1,0
		c0.2,0,0.4-0.1,0.6-0.3c0.2-0.2,0.2-0.6,0-0.8l3.2-4.1C-451,262-451,261.9-451.1,261.8z M-452.4,271.6
		C-452.4,271.7-452.4,271.7-452.4,271.6l0.2,0.1c0.1,0.1,0.2,0.2,0.2,0.4v0.4c0,0.2-0.1,0.3-0.3,0.3h-2.6c-0.5,0-1,0-1.5,0l-4.1-3.2
		c-0.1,0-0.1-0.1-0.1-0.2c0-0.1,0-0.2,0.1-0.2l0.9-1.1c0.1,0.2,0.2,0.4,0.3,0.6c0.1,0.3,0,0.6-0.2,0.8c0,0.1-0.1,0.1-0.1,0.2
		s0,0.1,0.1,0.2l3.2,2.5c0,0,0.1,0.1,0.2,0.1h2c0.1,0,0.1,0,0.2-0.1C-453.3,271.6-452.9,271.6-452.4,271.6z M-455.6,269.3l0.2,0.3
		l-0.9,0.6c-0.1,0.1-0.1,0.2-0.1,0.3c0,0.1,0.1,0.1,0.2,0.1c0,0,0.1,0,0.1,0l0.9-0.6l0.2,0.3l-0.7,0.4c-0.1,0.1-0.1,0.2-0.1,0.3
		c0,0.1,0.1,0.1,0.2,0.1c0,0,0.1,0,0.1,0l0.7-0.4l0.2,0.2c0,0,0.1,0.1,0.1,0.1l0.9,0.3c-0.3,0.1-0.5,0.3-0.8,0.5h-1.9l-3-2.3
		c0.1-0.3,0.2-0.6,0.1-1c-0.1-0.3-0.2-0.6-0.5-0.9l0.5-0.6c0,0,0,0.1,0,0.1c0.1,0.4,0.4,0.8,0.8,1.1c0.4,0.3,0.9,0.5,1.3,0.5
		c0.3,0,0.5-0.1,0.7-0.2l0.2,0.3l-1.1,0.7c-0.1,0.1-0.1,0.2-0.1,0.3c0,0.1,0.1,0.1,0.2,0.1c0,0,0.1,0,0.1,0L-455.6,269.3z
		 M-454.7,266.7c-0.1,0.1-0.2,0.1-0.3,0l-2.4-1.9c0,0-0.1-0.1-0.1-0.1c0-0.1,0-0.1,0-0.2c0.1-0.1,0.2-0.1,0.3,0c0,0,0,0,0,0
		c0,0,0,0,0,0l2.4,1.9l0,0C-454.7,266.4-454.6,266.6-454.7,266.7z"/>
	<path class="st0" d="M-459.9,263.2h0.5c0.1,0,0.2-0.1,0.2-0.2s-0.1-0.2-0.2-0.2h-0.5c-0.1,0-0.2,0.1-0.2,0.2
		S-460,263.2-459.9,263.2z"/>
	<path class="st0" d="M-458.5,263.2h3.1c0.1,0,0.2-0.1,0.2-0.2s-0.1-0.2-0.2-0.2h-0.1l0.5-0.6c0.1-0.1,0.1-0.3,0-0.3
		c-0.1-0.1-0.3-0.1-0.3,0l-0.7,0.9h-2.4c-0.1,0-0.2,0.1-0.2,0.2S-458.6,263.2-458.5,263.2z"/>
	<path class="st0" d="M-461.6,266.2h0.4c0.1,0,0.2-0.1,0.2-0.2c0-0.1-0.1-0.2-0.2-0.2h-0.4c-0.1,0-0.2,0.1-0.2,0.2
		C-461.9,266.1-461.8,266.2-461.6,266.2z"/>
</g>
</svg>
