<?xml version="1.0" encoding="utf-8"?>
<!-- Generator: Adobe Illustrator 19.0.0, SVG Export Plug-In . SVG Version: 6.00 Build 0)  -->
<svg version="1.1" id="Layer_1" xmlns="http://www.w3.org/2000/svg" xmlns:xlink="http://www.w3.org/1999/xlink" x="0px" y="0px"
	 viewBox="-223 -40 70.5 81.8" style="enable-background:new -223 -40 70.5 81.8;" xml:space="preserve">
<style type="text/css">
	.st0{fill:#FFFFFF;}
</style>
<g>
	<path class="st0" d="M-174.7-22.1c0.4,1.2,1.1,2.1,1.1,2.2v0c0.3,0.4,0.8,0.6,1.3,0.6c0.9,0,1.6-0.7,1.6-1.6c0-0.4-0.1-0.8-0.4-1h0
		c0,0-0.4-0.5-0.5-1.1c-0.2-0.7-0.1-1.2,0.4-1.7c1.3-1.3,1.8-3.1,1.2-4.9c-0.4-1.2-1.1-2.1-1.1-2.2l0,0v0l0,0
		c-0.3-0.4-0.8-0.6-1.3-0.6c-0.9,0-1.6,0.7-1.6,1.6c0,0.4,0.1,0.8,0.4,1l0,0c0,0,0.4,0.5,0.5,1c0.2,0.7,0.1,1.2-0.4,1.7
		C-174.8-25.7-175.2-23.9-174.7-22.1z"/>
	<path class="st0" d="M-188.3-23.1c0.5,1.8,1.4,3.1,1.5,3.3l0,0c0.3,0.4,0.8,0.6,1.3,0.6c0.9,0,1.6-0.7,1.6-1.6c0-0.4-0.1-0.7-0.3-1
		v0c0,0-0.7-0.9-1-2.2c-0.4-1.5-0.1-2.8,0.9-3.9c1.8-2,2.3-4.4,1.6-7.1c-0.5-1.8-1.4-3.1-1.5-3.3l0,0c-0.3-0.4-0.8-0.6-1.3-0.6
		c-0.9,0-1.6,0.7-1.6,1.6c0,0.4,0.1,0.7,0.3,1l0,0c0,0,0.7,0.9,1,2.2c0.4,1.5,0.1,2.8-0.9,3.9C-188.4-28.2-189-25.8-188.3-23.1z"/>
	<path class="st0" d="M-201-22.1c0.4,1.2,1.1,2.1,1.1,2.2v0c0.3,0.4,0.8,0.6,1.3,0.6c0.9,0,1.6-0.7,1.6-1.6c0-0.4-0.1-0.8-0.4-1l0,0
		c0,0-0.4-0.5-0.5-1.1c-0.2-0.7-0.1-1.2,0.4-1.7c1.3-1.3,1.8-3.1,1.2-4.9c-0.4-1.2-1-2.1-1.1-2.2c0,0,0,0,0,0l0,0l0,0
		c-0.3-0.4-0.8-0.6-1.3-0.6c-0.9,0-1.6,0.7-1.6,1.6c0,0.4,0.1,0.8,0.4,1l0,0c0,0,0.3,0.5,0.5,1c0.2,0.7,0.1,1.2-0.4,1.7
		C-201.1-25.7-201.6-23.9-201-22.1z"/>
	<path class="st0" d="M-154.7-15.5c-0.3-0.3-0.7-0.5-1.2-0.5h-0.1h-59.2l0,0c-0.4,0-0.8,0.2-1.2,0.5c-0.6,0.6-0.6,1.7,0,2.3
		c0.3,0.3,0.7,0.5,1.2,0.5l0,0h0.2c0.1,1.1,0.3,2.2,0.6,3.3h-5.7l0,0c-0.4,0-0.8,0.2-1.2,0.5c-0.6,0.6-0.6,1.7,0,2.3
		c0.3,0.3,0.7,0.5,1.2,0.5h6.6c2.6,7.3,7.9,13.2,14.7,16.6l-8.1,27.3c-0.2,0.6,0,1.2,0.4,1.6c0.6,0.6,1.7,0.6,2.3,0
		c0.2-0.2,0.3-0.4,0.4-0.7l1.6-5.4h28.1c0,3.6,3,6.6,6.6,6.6c3.6,0,6.6-2.9,6.6-6.6c0-3.6-2.9-6.6-6.6-6.6c0,0-0.1,0-0.1,0
		l-4.8-16.3c8.8-4.4,15.1-13,16.2-23.2h0.1v0c0.4,0,0.9-0.1,1.2-0.5C-154-13.8-154-14.8-154.7-15.5z M-164.1,33.4
		c0,1.8-1.5,3.3-3.3,3.3c-1.8,0-3.3-1.5-3.3-3.3c0-1.8,1.5-3.3,3.3-3.3C-165.5,30.1-164.1,31.6-164.1,33.4z M-170.7,27.7
		c-1,0.6-1.8,1.4-2.4,2.4h-28l5.4-18.3c0.1,0,0.2,0.1,0.3,0.1v8.3c0,1.8,1.5,3.3,3.3,3.3h13.2c1.8,0,3.3-1.5,3.3-3.3V12
		c0.1,0,0.2-0.1,0.3-0.1L-170.7,27.7z M-181,19.1c-0.6-0.6-1.7-0.6-2.3,0c-0.3,0.3-0.5,0.7-0.5,1.2h-3.3c0-0.4-0.2-0.8-0.5-1.2
		c-0.6-0.6-1.7-0.6-2.3,0c-0.3,0.3-0.5,0.7-0.5,1.2h-1.6v-7.3c2.1,0.5,4.3,0.7,6.6,0.7c2.3,0,4.5-0.3,6.6-0.7v7.3h-1.6
		C-180.5,19.8-180.7,19.4-181,19.1z M-161.2-5.7c-1.3,3.1-3.2,6-5.6,8.4c-2.4,2.4-5.2,4.3-8.4,5.6c-3.2,1.4-6.7,2.1-10.2,2.1
		c-3.6,0-7-0.7-10.2-2.1c-3.1-1.3-6-3.2-8.4-5.6c-2.4-2.4-4.3-5.2-5.6-8.4c-0.9-2.2-1.6-4.6-1.9-7h1.7c1.6,12.1,11.9,21.4,24.4,21.4
		c0,0,0,0,0,0c0.4,0,0.8-0.2,1.2-0.5c0.6-0.6,0.6-1.7,0-2.3c-0.3-0.3-0.7-0.5-1.2-0.5l0,0c0,0,0,0,0,0c-2.9,0-5.7-0.6-8.3-1.7
		c-2.5-1.1-4.8-2.6-6.8-4.6c-2-2-3.5-4.2-4.6-6.8c-0.7-1.6-1.2-3.3-1.4-5.1h47.2C-159.6-10.3-160.3-7.9-161.2-5.7z"/>
	<path class="st0" d="M-168.5,32.3c-0.6,0.6-0.6,1.7,0,2.3c0.6,0.6,1.7,0.6,2.3,0c0.6-0.6,0.6-1.7,0-2.3
		C-166.8,31.6-167.9,31.6-168.5,32.3z"/>
</g>
</svg>
