<?xml version="1.0" encoding="utf-8"?>
<!-- Generator: Adobe Illustrator 19.0.0, SVG Export Plug-In . SVG Version: 6.00 Build 0)  -->
<svg version="1.1" id="Layer_1" xmlns="http://www.w3.org/2000/svg" xmlns:xlink="http://www.w3.org/1999/xlink" x="0px" y="0px"
	 viewBox="-223 -40 145 147" style="enable-background:new -223 -40 145 147;" xml:space="preserve">
<style type="text/css">
	.st0{fill:#FFFFFF;}
</style>
<g>
	<path class="st0" d="M-85.1,95.8h-4.7V41.6V-6h4.7c0.9,0,1.7-0.6,2-1.4c0.3-0.8,0.1-1.8-0.6-2.3L-114-35.5c-0.8-0.7-2-0.7-2.8,0
		l-30.2,25.7c-0.7,0.6-0.9,1.5-0.6,2.3c0.3,0.8,1.1,1.4,2,1.4h4.7V9.5h-8.9c-4.7,0-8.5,3.8-8.5,8.5v11l-60,55.6
		c-0.4,0.4-0.7,1-0.7,1.6v11.3c0,0.1,0,0.2,0,0.3c0,1.1,0.8,1.9,1.8,2.1c0.1,0,0.2,0,0.4,0h78.2H-92h6.8c1.2,0,2.1-0.9,2.1-2.1
		C-83,96.7-84,95.8-85.1,95.8z M-115.3-31.1l24.4,20.8H-92h-46.7h-1.1L-115.3-31.1z M-94.1-6v45.4h-42.5V11.6V-6H-94.1z
		 M-123.1,70.1h15.5v14.1h-15.5V70.1z M-107.6,68h-15.5V53.8h15.5V68z M-123.1,95.8v-9.5h15.5v9.5H-123.1z M-107.6,51.7h-15.5v-8
		h15.5V51.7z M-155.3,43.7h14.5v52h-70.6L-155.3,43.7z M-149.8,13.8h9v25.7H-154V30c0-0.1,0-0.2,0-0.3V18
		C-154,15.7-152.1,13.8-149.8,13.8z M-214.8,87.2l56.5-52.3v5.8L-214.8,93V87.2z M-136.6,43.7h11.4v52h-11.4V43.7z M-105.5,95.8v-52
		h11.4v52H-105.5z"/>
	<path class="st0" d="M-130.2,34.2c0.6,0,1.1-0.5,1.1-1.1V0.4c0-0.6-0.5-1.1-1.1-1.1c-0.6,0-1.1,0.5-1.1,1.1v32.7
		C-131.2,33.7-130.8,34.2-130.2,34.2z"/>
	<path class="st0" d="M-122.7,34.2c0.6,0,1.1-0.5,1.1-1.1V0.4c0-0.6-0.5-1.1-1.1-1.1c-0.6,0-1.1,0.5-1.1,1.1v32.7
		C-123.8,33.7-123.3,34.2-122.7,34.2z"/>
	<path class="st0" d="M-115.3,34.2c0.6,0,1.1-0.5,1.1-1.1V0.4c0-0.6-0.5-1.1-1.1-1.1c-0.6,0-1.1,0.5-1.1,1.1v32.7
		C-116.4,33.7-115.9,34.2-115.3,34.2z"/>
	<path class="st0" d="M-107.9,34.2c0.6,0,1.1-0.5,1.1-1.1V0.4c0-0.6-0.5-1.1-1.1-1.1c-0.6,0-1.1,0.5-1.1,1.1v32.7
		C-108.9,33.7-108.5,34.2-107.9,34.2z"/>
	<path class="st0" d="M-100.5,34.2c0.6,0,1.1-0.5,1.1-1.1V0.4c0-0.6-0.5-1.1-1.1-1.1c-0.6,0-1.1,0.5-1.1,1.1v32.7
		C-101.5,33.7-101.1,34.2-100.5,34.2z"/>
</g>
</svg>
