<?xml version="1.0" encoding="utf-8"?>
<!-- Generator: Adobe Illustrator 19.0.0, SVG Export Plug-In . SVG Version: 6.00 Build 0)  -->
<svg version="1.1" id="Layer_1" xmlns="http://www.w3.org/2000/svg" xmlns:xlink="http://www.w3.org/1999/xlink" x="0px" y="0px"
	 viewBox="-429 218 97.7 62.5" style="enable-background:new -429 218 97.7 62.5;" xml:space="preserve">
<style type="text/css">
	.st0{fill:#FFFFFF;}
</style>
<g>
	<path class="st0" d="M-335.3,221.8c-1.3-1.4-3.1-2.1-5-2.1h-79.4c-3.9,0-7,3.1-7,7v44.7c0,3.9,3.1,7,7,7h79.3c3.9,0,7-3.1,7-7
		v-44.8C-333.3,224.8-334,223.1-335.3,221.8z M-342.3,239v20c0,0.9,0.6,1.5,1.5,1.5h4.4v8.6h-14.8v-40.2h14.8v8.6h-4.4
		C-341.7,237.5-342.3,238.1-342.3,239z M-336.4,240.5v17h-2.9v-17H-336.4z M-355.2,249c0-1.4,0.3-2.8,1-4v8
		C-354.9,251.8-355.2,250.4-355.2,249z M-354.2,227.5v12.9c-2.5,2.2-4,5.4-4,8.7c0,3.4,1.5,6.6,4,8.7v12.9c0,0.9,0.6,1.5,1.5,1.5
		h16.2c-0.3,1.8-1.9,3.1-3.8,3.1h-38.2v-14.9c5.7-0.7,10.1-5.7,10.1-11.4s-4.4-10.7-10.1-11.4v-14.9h38.2c1.9,0,3.5,1.4,3.9,3.3
		h-16.3C-353.6,226-354.2,226.6-354.2,227.5z M-378.5,247.1v-6.6c4.1,0.7,7.1,4.2,7.1,8.4c0,4.2-3,7.7-7.1,8.4v-6.3
		c0.6-0.4,1-1.2,1-2C-377.5,248.4-377.9,247.7-378.5,247.1z M-381.5,247.1c-0.6,0.4-1,1.2-1,2c0,0.8,0.4,1.5,1,1.9v6.4
		c-4.1-0.7-7.1-4.2-7.1-8.4c0-4.2,3-7.7,7.1-8.4V247.1z M-404.8,249c0,1.4-0.3,2.8-1,4v-8C-405.1,246.2-404.8,247.6-404.8,249z
		 M-407.3,272.1c0.9,0,1.5-0.6,1.5-1.5v-12.9c2.5-2.2,4-5.4,4-8.7c0-3.4-1.5-6.6-4-8.7v-12.9c0-0.9-0.6-1.5-1.5-1.5h-16.2
		c0.3-1.9,2-3.3,3.9-3.3h38.1v15c-5.7,0.7-10.1,5.7-10.1,11.4s4.4,10.7,10.1,11.4v14.9h-38.2c-2,0-3.5-1.3-3.8-3.2H-407.3z
		 M-417.8,259v-20c0-0.9-0.6-1.5-1.5-1.5h-4.4v-8.6h14.8v40.2h-14.8v-8.6h4.4C-418.4,260.5-417.8,259.9-417.8,259z M-423.7,257.5
		v-17h2.9v17H-423.7z"/>
	<circle class="st0" cx="-413.3" cy="249.1" r="2.5"/>
	<circle class="st0" cx="-346.6" cy="249" r="2.5"/>
</g>
</svg>
