<?xml version="1.0" encoding="utf-8"?>
<!-- Generator: Adobe Illustrator 19.0.0, SVG Export Plug-In . SVG Version: 6.00 Build 0)  -->
<svg version="1.1" id="Layer_1" xmlns="http://www.w3.org/2000/svg" xmlns:xlink="http://www.w3.org/1999/xlink" x="0px" y="0px"
	 viewBox="-15 232 96 96" style="enable-background:new -15 232 96 96;" xml:space="preserve">
<style type="text/css">
	.st0{fill:#252827;}
</style>
<g>
	<path class="st0" d="M74,239.8c-0.2-0.8-0.8-1.4-1.8-1.8c-21.4-5.6-44.3,0.5-59.8,16.1C-2.9,269.5-9.1,291.8-4,312.7l-7.3,7.3
		c-1,1-1,2.4,0,3.3c0.5,0.5,1.1,0.6,1.8,0.6c0.6,0,1.3-0.2,1.8-0.6l7.3-7.3c20.9,5.1,43.2-1.1,58.5-16.4
		C73.5,284.1,79.5,261.2,74,239.8z M54.5,296.3c-13.4,13.4-32.7,19.1-51,15.8l8.1-8.1h17.1c1.3,0,2.4-1.1,2.4-2.4
		c0-1.3-1.1-2.4-2.4-2.4H16.4l25.7-25.7h17.1c1.3,0,2.4-1.1,2.4-2.4c0-1.3-1.1-2.4-2.4-2.4H46.9l9.6-9.6c1-1,1-2.4,0-3.3
		c-1-1-2.4-1-3.3,0l-13.6,13.6l-12.3,12.1v-11.2c0-1.3-1.1-2.4-2.4-2.4c-1.3,0-2.4,1.1-2.4,2.4v15.9l-9.4,9.4v-18
		c0-1.3-1.1-2.4-2.4-2.4c-1.3,0-2.4,1.1-2.4,2.4v23L0,308.7c-3.5-18.5,2.4-37.8,15.8-51c14-14,34.6-19.8,53.9-15.2
		C74.3,261.7,68.5,282.2,54.5,296.3z"/>
	<path class="st0" d="M47.7,284.9h-10c-1.3,0-2.4,1.1-2.4,2.4c0,1.3,1.1,2.4,2.4,2.4h10c1.3,0,2.4-1.1,2.4-2.4
		C50,285.9,48.9,284.9,47.7,284.9z"/>
</g>
</svg>
