<?xml version="1.0" encoding="utf-8"?>
<!-- Generator: Adobe Illustrator 19.0.0, SVG Export Plug-In . SVG Version: 6.00 Build 0)  -->
<svg version="1.1" id="Isolation_Mode" xmlns="http://www.w3.org/2000/svg" xmlns:xlink="http://www.w3.org/1999/xlink" x="0px"
	 y="0px" viewBox="-429 218 78.3 93.5" style="enable-background:new -429 218 78.3 93.5;" xml:space="preserve">
<style type="text/css">
	.st0{fill:#FFFFFF;}
</style>
<g>
	<path class="st0" d="M-375.3,230.7c0.6-0.6,0.6-1.5,0-2.1l-4-4c-1-1-2.7-1-3.7,0l-1.9,1.9c-0.6,0.6-0.6,1.5,0,2.1
		c0.6,0.6,1.5,0.6,2.1,0l1.6-1.6l3.7,3.7c0.3,0.3,0.7,0.4,1.1,0.4C-375.9,231.2-375.5,231-375.3,230.7z"/>
	<path class="st0" d="M-411,280.9c1,0,2-0.4,2.7-1.1l7.5-7.5c0.7-0.7,1.1-1.7,1.1-2.7s-0.4-1.9-1.1-2.7l-2.7-2.7l21.9-21.9l2.7,2.7
		c0.7,0.7,1.7,1.1,2.7,1.1c1,0,1.9-0.4,2.7-1.1l7.5-7.5c0.7-0.7,1.1-1.7,1.1-2.7c0-1-0.4-2-1.1-2.7l-12.3-12.3
		c-1.4-1.4-3.9-1.4-5.3,0l-7.5,7.5c-0.7,0.7-1.1,1.7-1.1,2.7c0,1,0.4,2,1.1,2.7l2.1,2.1l-21.9,21.9l-2.1-2.1c-1.4-1.4-3.9-1.4-5.3,0
		l-7.5,7.5c-1.5,1.5-1.5,3.9,0,5.3l12.3,12.3C-412.9,280.5-412,280.9-411,280.9z M-389.1,230.7c-0.2-0.2-0.2-0.4-0.2-0.5
		c0-0.1,0-0.3,0.2-0.5l7.5-7.5c0.2-0.2,0.4-0.2,0.5-0.2c0.1,0,0.3,0,0.5,0.2l12.3,12.3c0.2,0.2,0.2,0.4,0.2,0.5c0,0.1,0,0.3-0.2,0.5
		l-7.5,7.5c-0.3,0.3-0.8,0.3-1.1,0L-389.1,230.7z M-387,237.1l3.2,3.2l-21.9,21.9l-3.2-3.2L-387,237.1z M-423.8,264.3l7.5-7.5
		c0.2-0.2,0.4-0.2,0.5-0.2s0.3,0,0.5,0.2l12.3,12.3c0.1,0.1,0.2,0.3,0.2,0.5c0,0.2-0.1,0.4-0.2,0.5l-7.5,7.5
		c-0.2,0.2-0.4,0.2-0.5,0.2c-0.1,0-0.3,0-0.5-0.2l-12.3-12.3C-424.1,265.1-424.1,264.6-423.8,264.3z"/>
	<path class="st0" d="M-353.4,261.4l-12.3-12.3c-1.4-1.4-3.9-1.4-5.3,0l-7.5,7.5c-1.5,1.5-1.5,3.9,0,5.3l2.1,2.1l-21.9,21.9
		l-2.1-2.1c-1.4-1.4-3.9-1.4-5.3,0l-7.5,7.5c-0.7,0.7-1.1,1.7-1.1,2.7c0,1,0.4,2,1.1,2.7l12.3,12.3c0.7,0.7,1.7,1.1,2.7,1.1
		s2-0.4,2.7-1.1l7.5-7.5c1.5-1.5,1.5-3.9,0-5.3l-2.7-2.7l21.9-21.9l2.7,2.7c0.7,0.7,1.7,1.1,2.7,1.1c1,0,2-0.4,2.7-1.1l7.5-7.5
		c0.7-0.7,1.1-1.7,1.1-2.7S-352.7,262.1-353.4,261.4z M-390.2,298.2c0.3,0.3,0.3,0.8,0,1.1l-7.5,7.5c-0.2,0.2-0.4,0.2-0.5,0.2
		c-0.2,0-0.4-0.1-0.5-0.2l-12.3-12.3c-0.2-0.2-0.2-0.4-0.2-0.5c0-0.1,0-0.3,0.2-0.5l7.5-7.5c0.2-0.2,0.4-0.2,0.5-0.2
		c0.1,0,0.3,0,0.5,0.2l3.2,3.2c0,0,0,0,0,0c0,0,0,0,0,0l5.3,5.3c0,0,0,0,0,0c0,0,0,0,0,0L-390.2,298.2z M-392.8,291.3l-3.2-3.2
		l21.9-21.9l3.2,3.2L-392.8,291.3z M-355.5,264.6l-7.5,7.5c-0.2,0.2-0.4,0.2-0.5,0.2c-0.1,0-0.3,0-0.5-0.2l-3.7-3.7c0,0,0,0,0,0
		c0,0,0,0,0,0l-5.3-5.3l0,0h0l-3.2-3.2c-0.3-0.3-0.3-0.8,0-1.1l7.5-7.5c0.1-0.1,0.3-0.2,0.5-0.2c0.1,0,0.3,0,0.5,0.2l12.3,12.3
		c0.2,0.2,0.2,0.4,0.2,0.5C-355.3,264.2-355.3,264.4-355.5,264.6z"/>
	<path class="st0" d="M-366.4,253.7c-1-1-2.7-1-3.7,0l-1.9,1.9c-0.6,0.6-0.6,1.5,0,2.1c0.6,0.6,1.5,0.6,2.1,0l1.6-1.6l3.7,3.7
		c0.3,0.3,0.7,0.4,1.1,0.4s0.8-0.1,1.1-0.4c0.6-0.6,0.6-1.5,0-2.1L-366.4,253.7z"/>
</g>
</svg>
