<?xml version="1.0" encoding="utf-8"?>
<!-- Generator: Adobe Illustrator 19.0.0, SVG Export Plug-In . SVG Version: 6.00 Build 0)  -->
<svg version="1.1" id="Layer_1" xmlns="http://www.w3.org/2000/svg" xmlns:xlink="http://www.w3.org/1999/xlink" x="0px" y="0px"
	 viewBox="-429 218 79.5 81" style="enable-background:new -429 218 79.5 81;" xml:space="preserve">
<style type="text/css">
	.st0{fill:#252827;}
</style>
<g>
	<path class="st0" d="M-361.9,248.3c0.4,0.4,0.8,0.5,1.3,0.5s1-0.2,1.3-0.5l6-6c2.9-2.9,2.9-7.5,0-10.4l-9.7-9.7
		c-1.4-1.4-3.2-2.2-5.2-2.2s-3.8,0.8-5.2,2.2l-5.9,6.1c-0.4,0.4-0.5,0.8-0.5,1.3s0.2,1,0.5,1.3L-361.9,248.3z M-370.5,224.9
		c0.6-0.7,1.5-1.1,2.5-1.1s1.9,0.4,2.6,1.1l9.7,9.7c1.4,1.4,1.4,3.7,0,5.1l-4.7,4.7l-14.8-14.8L-370.5,224.9z"/>
	<path class="st0" d="M-412.5,256.2c0.5,0,0.9-0.1,1.3-0.5c0.7-0.7,0.7-1.9,0-2.6l-11.6-11.6l14.8-14.8l2.1,2.1l-3.8,3.8
		c-0.7,0.7-0.7,1.9,0,2.6c0.3,0.3,0.8,0.5,1.3,0.5s0.9-0.1,1.3-0.5l3.8-3.8l2,2l-3.6,4c-0.7,0.7-0.7,1.9,0,2.6
		c0.3,0.3,0.8,0.5,1.3,0.5s0.9-0.1,1.3-0.5l3.8-3.8l1.9,1.9c0.7,0.7,1.9,0.7,2.6,0c0.7-0.7,0.7-1.9,0-2.6l-12.7-12.7
		c-0.7-0.7-1.9-0.7-2.6,0l-17.4,17.4c-0.7,0.7-0.7,1.9,0,2.6l12.9,12.9C-413.5,256-413,256.2-412.5,256.2z"/>
	<path class="st0" d="M-365.9,263.6c-0.7-0.7-1.9-0.7-2.6,0c-0.7,0.7-0.7,1.9,0,2.6l1.9,1.9l-3.9,3.9c-0.7,0.7-0.7,1.9,0,2.6
		c0.3,0.3,0.8,0.5,1.3,0.5s0.9-0.1,1.3-0.5l3.9-3.9l2,2l-3.9,3.9c-0.7,0.7-0.7,1.9,0,2.6c0.3,0.3,0.8,0.5,1.3,0.5s0.9-0.1,1.3-0.5
		l3.9-3.9l2.1,2.1l-14.6,15l-11.6-11.6c-0.7-0.7-1.9-0.7-2.6,0c-0.7,0.7-0.7,1.9,0,2.6l12.9,12.9c0.3,0.3,0.8,0.5,1.3,0.5
		s0.9-0.1,1.3-0.5l17.4-17.4c0.7-0.7,0.7-1.9,0-2.6L-365.9,263.6z"/>
	<path class="st0" d="M-364.8,251.3c-0.7-0.7-1.9-0.7-2.6,0l-35.4,35.4l-6.1-6.1l35.3-35.3c0.7-0.7,0.7-1.9,0-2.6s-1.9-0.7-2.6,0
		l-35.3,35.3l-6.1-6.1l35.3-35.3c0.7-0.7,0.7-1.9,0-2.6s-1.9-0.7-2.6,0l-36.7,36.7l-0.1,0.1c-0.1,0.1-0.1,0.2-0.2,0.3c0,0,0,0,0,0.1
		c-0.1,0.1-0.1,0.3-0.1,0.4l-2.7,20.1c-0.1,0.6,0.1,1.2,0.5,1.6c0.4,0.4,0.8,0.5,1.3,0.5c0.1,0,0.2,0,0.3,0l20.1-2.7
		c0.2,0,0.3-0.1,0.4-0.1c0,0,0,0,0.1,0c0.1-0.1,0.2-0.1,0.3-0.2l0.1-0.1c0,0,0.1,0,0.1-0.1l36.7-36.7
		C-364.1,253.2-364.1,252-364.8,251.3z M-420.7,289.9l1.9-14l12.1,12.1L-420.7,289.9z"/>
</g>
</svg>
