<?xml version="1.0" encoding="utf-8"?>
<!-- Generator: Adobe Illustrator 19.0.0, SVG Export Plug-In . SVG Version: 6.00 Build 0)  -->
<svg version="1.1" id="Layer_1" xmlns="http://www.w3.org/2000/svg" xmlns:xlink="http://www.w3.org/1999/xlink" x="0px" y="0px"
	 viewBox="-226.5 -42 174 174" style="enable-background:new -226.5 -42 174 174;" xml:space="preserve">
<style type="text/css">
	.st0{fill:#FFFFFF;}
</style>
<path class="st0" d="M-90.6,121.7V95c16.3-1.4,29.1-15,29.1-31.7c0-14.4-12.3-72-31.8-72c-19.5,0-31.8,57.6-31.8,72
	c0,16.6,12.8,30.3,29.1,31.7v26.7h-77.2V95c21-1.4,37.7-18.9,37.7-40.3c0-17.9-16.1-92.7-40.4-92.7s-40.4,74.7-40.4,92.7
	c0,21.4,16.7,38.9,37.7,40.3v26.7H-221v5.3h42.6h5.3h77.2h5.3H-56v-5.3H-90.6z M-119.7,63.3c0-17.2,13.4-66.7,26.4-66.7
	s26.4,49.5,26.4,66.7c0,13.7-10.4,25-23.8,26.3V64.2l12.5-12.5l-3.8-3.8l-8.8,8.8V39.2h-5.3V70l-11.4-11.4l-3.8,3.8l15.2,15.2v12.1
	C-109.3,88.3-119.7,77-119.7,63.3z M-210.8,54.7c0-23.1,17.4-87.3,35.1-87.3s35.1,64.2,35.1,87.3c0,18.4-14.3,33.6-32.4,35V74.9
	l15.2-15.2l-3.8-3.8l-11.4,11.4V43l15.2-15.2l-3.8-3.8l-11.4,11.4V15.2h-5.3v33.5l-14.1-14.1l-3.8,3.8l17.8,17.8v33.4
	C-196.5,88.3-210.8,73.1-210.8,54.7z"/>
</svg>
