<?xml version="1.0" encoding="utf-8"?>
<!-- Generator: Adobe Illustrator 19.0.0, SVG Export Plug-In . SVG Version: 6.00 Build 0)  -->
<svg version="1.1" id="Layer_1" xmlns="http://www.w3.org/2000/svg" xmlns:xlink="http://www.w3.org/1999/xlink" x="0px" y="0px"
	 viewBox="-427 232.5 81.5 91.3" style="enable-background:new -427 232.5 81.5 91.3;" xml:space="preserve">
<style type="text/css">
	.st0{fill:#252827;}
</style>
<g>
	<path class="st0" d="M-384.1,243.6v-6h5c1.1,0,2-0.9,2-2c0-1.1-0.9-2-2-2c0,0,0,0-0.1,0h-14c-0.1,0-0.1,0-0.2,0
		c-1.1,0.1-2,1-1.9,2.1c0.1,1.1,1,2,2.1,1.9h5v6c-20.6,1-37.1,18.2-37.1,39.1c0,21.6,17.5,39.1,39.1,39.1
		c21.6,0,39.1-17.5,39.1-39.1C-347,261.7-363.4,244.6-384.1,243.6z M-359.9,305.9l-2.7-2.7c-0.4-0.4-1-0.7-1.6-0.6
		c-1.1,0.1-1.9,1.1-1.8,2.2c0,0.5,0.3,0.9,0.6,1.3l2.7,2.7c-5.7,5.1-13.2,8.4-21.4,8.8v-3.9c0-1.1-1.1-2.2-2.2-2c-1,0.1-1.8,1-1.8,2
		v3.9c-18.5-1-33.1-16.3-33.1-35c0-19.4,15.7-35.1,35.1-35.1c9,0,17.1,3.4,23.3,8.9l-2.7,2.7c-0.8,0.8-0.8,2-0.1,2.8
		c0.8,0.8,2,0.8,2.8,0.1c0,0,0,0,0.1-0.1l2.7-2.7c5.1,5.7,8.4,13.2,8.8,21.4h-3.9h-0.2c-1,0-2,1-1.9,2.1c0,1,1,2,2.1,1.9h3.9
		C-351.5,292.8-354.8,300.2-359.9,305.9z"/>
	<path class="st0" d="M-384.1,274.9v-21.3c0-1.1-1.1-2.2-2.2-2c-1,0.1-1.8,1-1.8,2v21.3c-3.4,0.9-6,4-6,7.7c0,4.4,3.6,8,8,8
		c4.4,0,8-3.6,8-8C-378.1,278.9-380.6,275.8-384.1,274.9z M-386.1,286.6c-2.2,0-4-1.8-4-4s1.8-4,4-4c2.2,0,4,1.8,4,4
		S-383.8,286.6-386.1,286.6z"/>
</g>
</svg>
