<?xml version="1.0" encoding="utf-8"?>
<!-- Generator: Adobe Illustrator 19.0.0, SVG Export Plug-In . SVG Version: 6.00 Build 0)  -->
<svg version="1.1" id="Layer_1" xmlns="http://www.w3.org/2000/svg" xmlns:xlink="http://www.w3.org/1999/xlink" x="0px" y="0px"
	 viewBox="-431 221 91.2 91.8" style="enable-background:new -431 221 91.2 91.8;" xml:space="preserve">
<style type="text/css">
	.st0{fill:#252827;}
</style>
<path class="st0" d="M-384.8,291.9c-8.6,0-14.4-4.9-14.4-12.3c0-1,0.8-1.8,1.8-1.8c1,0,1.8,0.8,1.8,1.8c0,6.4,5.5,8.6,10.7,8.6
	c5.2,0,10.7-2.3,10.7-8.6c0-5-2.1-6.3-9.5-9.9l-4-2c-7.2-3.6-11.6-5.7-11.6-13.2c0-7.4,5.8-12.4,14.4-12.4c8.5,0,14.2,5,14.2,12.4
	c0,1-0.8,1.8-1.8,1.8c-1,0-1.8-0.8-1.8-1.8c0-6.4-5.5-8.7-10.6-8.7c-5.2,0-10.7,2.3-10.7,8.7c0,5,2.1,6.3,9.6,9.9l4,2
	c7.2,3.6,11.6,5.7,11.6,13.2C-370.4,286.9-376.2,291.9-384.8,291.9z"/>
<path class="st0" d="M-385,245.7c-1,0-1.8-0.8-1.8-1.8v-6.2c0-1,0.8-1.8,1.8-1.8s1.8,0.8,1.8,1.8v6.2
	C-383.2,244.9-384,245.7-385,245.7z"/>
<path class="st0" d="M-385,298.2c-1,0-1.8-0.8-1.8-1.8V290c0-1,0.8-1.8,1.8-1.8s1.8,0.8,1.8,1.8v6.3
	C-383.2,297.3-384,298.2-385,298.2z"/>
<path class="st0" d="M-385,226.7c22.2,0,40.3,18.1,40.3,40.3c0,22.2-18.1,40.3-40.3,40.3s-40.3-18.1-40.3-40.3
	C-425.3,244.8-407.2,226.7-385,226.7z M-385,223c-24.3,0-44,19.7-44,44s19.7,44,44,44s44-19.7,44-44S-360.7,223-385,223L-385,223z"
	/>
</svg>
